<?xml version="1.0" encoding="UTF-8"?>
<svg id="Capa_2" data-name="Capa 2" xmlns="http://www.w3.org/2000/svg" viewBox="0 0 534.71 581.48">
  <defs>
    <style>
      .cls-1 {
        fill: #fff;
      }

      .cls-2 {
        fill: #db2f89;
      }
    </style>
  </defs>
  <path class="cls-1" d="m408.3,213.63c7.8-14.64,15.95-29.12,23.25-44.03,23.97-48.98,37.21-121.83-16.99-156.72C400.68,3.95,384.78-.14,368.78,0c-11.48.1-23.02,2.38-33.88,6.61-24.7,9.62-46.4,30.39-54.17,56.02-8.88,29.24-3.07,60.83,4.63,89.64,2.99,11.17,6.41,22.22,9.79,33.29,14.93,48.98,24.37,103.44,16.25,153.48-24.84-7.6-52.06-7.53-76.99.41.01-.36.02-.64.04-.79,1.47-14.22,3.49-28.38,5.83-42.47,6.24-37.47,13.57-73.66,4.94-111.53-10.5-46.1-44.23-87.44-93.57-91.81-28.71-2.54-61.8,3.57-89.58,17.91-3.85,1.99-7.62,4.14-11.27,6.48C21.91,135.64,4.04,164.11.54,198.19c-3.05,29.71,6.68,60.82,33.27,76.93,20.73,12.57,45.64,19.15,69.37,11.82,20.2-6.24,28.92-27.78,43.91-40.81,19.4-16.86,33.95-10.33,40.75,19.36,6.38,27.9,4.86,73.41,3.43,97.57-44.06,35.72-69.6,98.52-51.37,152.72,3.81,11.32,9.65,21.98,17.69,30.86,13.32,14.73,31.89,23.97,51.13,28.92,21.5,5.53,43.83,6.06,65.91,5.9,21.4-.16,42.95-.54,63.81-5.9,19.24-4.94,37.8-14.19,51.13-28.92,8.03-8.88,13.88-19.54,17.69-30.86,18.4-54.71-7.8-118.2-52.63-153.73,1.9-13.39,8.36-34.07,9.07-36.53,7.86-27.17,17.32-53.9,28.73-79.78,4.83-10.95,10.27-21.57,15.88-32.11Z"/>
  <path class="cls-2" d="m531.67,319.1c1.9-3.2,3.03-6.72,3.03-10.6,0-10.95-8.87-19.82-19.82-19.82-6.36,0-12,3-15.63,7.66.06-.64.1-1.3.1-1.96,0-10.95-8.87-19.82-19.82-19.82-13.27,0-20.71,11.75-19.55,23.99.83,8.79,3.53,17.67,6.14,26.09.92,2.97,10.63,30.25,10.75,30.19,10.33-4.84,20.54-9.97,30.35-15.8,8.82-5.24,19.05-10.84,24.45-19.93Z"/>
  <g>
    <path class="cls-2" d="m172.13,465.97s52.1-6.51,86.64,12.18c-6.15-18.81-15.72-42.36-32.16-54.36-9.87-7.2-23.99-6.11-34.3-.45-11.4,6.26-16.92,18.88-19.02,31.2-.18,1.03-1.14,11.43-1.17,11.44Z"/>
    <path class="cls-2" d="m376.28,465.97s-52.1-6.51-86.64,12.18c6.15-18.81,15.72-42.36,32.16-54.36,9.87-7.2,23.99-6.11,34.3-.45,11.4,6.26,16.92,18.88,19.02,31.2.18,1.03,1.14,11.43,1.17,11.44Z"/>
  </g>
</svg>