<?xml version="1.0" encoding="UTF-8"?>
<svg id="Capa_3" data-name="Capa 3" xmlns="http://www.w3.org/2000/svg" viewBox="0 0 253.22 186.82">
  <defs>
    <style>
      .cls-1 {
        fill: #fff;
      }

      .cls-2 {
        fill: #c84d1e;
      }
    </style>
  </defs>
  <g>
    <path class="cls-2" d="m64.33,37.75v79.05h-17.97l-.02-53.37-7.15,53.37h-12.74l-7.54-52.15-.02,52.15H.9V37.75h26.6c.79,4.75,1.6,10.35,2.44,16.81l2.92,20.11,4.72-36.91h26.75Z"/>
    <path class="cls-2" d="m90.64,37.75v79.05h-20.56V37.75h20.56Z"/>
    <path class="cls-2" d="m139.95,61.68h-19.09v-5.86c0-2.73-.24-4.48-.73-5.22-.49-.75-1.3-1.12-2.44-1.12-1.24,0-2.17.5-2.81,1.52s-.95,2.54-.95,4.59c0,2.64.36,4.63,1.07,5.96.68,1.34,2.62,2.95,5.81,4.83,9.15,5.43,14.91,9.89,17.29,13.37,2.38,3.48,3.56,9.1,3.56,16.85,0,5.63-.66,9.78-1.98,12.45-1.32,2.67-3.87,4.91-7.64,6.71-3.78,1.81-8.17,2.71-13.18,2.71-5.5,0-10.2-1.04-14.09-3.12-3.89-2.08-6.44-4.74-7.64-7.96-1.2-3.22-1.81-7.8-1.81-13.72v-5.18h19.09v9.62c0,2.96.27,4.87.81,5.71.54.85,1.49,1.27,2.86,1.27s2.38-.54,3.05-1.61c.67-1.07,1-2.67,1-4.79,0-4.66-.63-7.7-1.9-9.13-1.3-1.43-4.51-3.82-9.62-7.18-5.11-3.39-8.5-5.84-10.16-7.37-1.66-1.53-3.04-3.65-4.13-6.35-1.09-2.7-1.64-6.15-1.64-10.35,0-6.05.77-10.48,2.32-13.28,1.55-2.8,4.04-4.99,7.5-6.57,3.45-1.58,7.62-2.37,12.5-2.37,5.34,0,9.89.86,13.65,2.59,3.76,1.73,6.25,3.9,7.47,6.52,1.22,2.62,1.83,7.07,1.83,13.35v3.12Z"/>
  </g>
  <g>
    <path class="cls-1" d="m0,123.86h16.15c4.37,0,7.73.34,10.07,1.03,2.35.69,4.11,1.68,5.29,2.97s1.98,2.86,2.4,4.7c.42,1.84.63,4.69.63,8.55v5.37c0,3.94-.41,6.8-1.22,8.61-.81,1.8-2.3,3.19-4.48,4.15s-5.01,1.45-8.51,1.45h-4.3v24.83H0v-61.66Zm16.03,10.55v15.69c.46.03.85.04,1.18.04,1.47,0,2.49-.36,3.07-1.08.57-.72.86-2.23.86-4.51v-5.07c0-2.11-.33-3.48-.99-4.11-.66-.63-2.03-.95-4.11-.95Z"/>
    <path class="cls-1" d="m55.19,123.86v61.66h-16.03v-61.66h16.03Z"/>
    <path class="cls-1" d="m61.62,123.86h11.35c7.57,0,12.69.29,15.37.88,2.68.58,4.86,2.08,6.55,4.47,1.69,2.4,2.53,6.23,2.53,11.48,0,4.8-.6,8.02-1.79,9.67-1.19,1.65-3.54,2.64-7.05,2.97,3.17.79,5.31,1.84,6.4,3.16,1.09,1.32,1.77,2.53,2.04,3.64.27,1.11.4,4.15.4,9.12v16.26h-14.89v-20.49c0-3.3-.26-5.34-.78-6.13-.52-.79-1.89-1.18-4.09-1.18v27.8h-16.03v-61.66Zm16.03,10.55v13.71c1.8,0,3.07-.25,3.79-.74.72-.5,1.09-2.1,1.09-4.82v-3.39c0-1.96-.35-3.24-1.05-3.85-.7-.61-1.97-.91-3.83-.91Z"/>
    <path class="cls-1" d="m140.08,123.86v41.21c0,4.67-.15,7.95-.46,9.84-.3,1.89-1.21,3.83-2.7,5.83-1.5,1.99-3.47,3.5-5.92,4.53-2.45,1.03-5.34,1.54-8.66,1.54-3.68,0-6.93-.61-9.75-1.83s-4.93-2.81-6.32-4.76c-1.4-1.96-2.22-4.02-2.48-6.19-.25-2.17-.38-6.74-.38-13.69v-36.49h16.03v46.24c0,2.69.15,4.41.44,5.16.29.75.88,1.12,1.77,1.12,1.02,0,1.67-.41,1.96-1.24.29-.82.44-2.77.44-5.85v-45.44h16.03Z"/>
    <path class="cls-1" d="m162.32,123.86v49.32h9.75v12.34h-25.78v-61.66h16.03Z"/>
    <path class="cls-1" d="m211.42,159.97c0,6.2-.15,10.58-.44,13.16-.29,2.58-1.21,4.93-2.74,7.06-1.54,2.13-3.61,3.77-6.23,4.91s-5.66,1.71-9.14,1.71-6.26-.54-8.89-1.62c-2.63-1.08-4.74-2.7-6.34-4.86s-2.55-4.51-2.86-7.05-.46-6.98-.46-13.33v-10.55c0-6.2.15-10.58.44-13.16s1.21-4.93,2.74-7.07,3.61-3.77,6.23-4.91,5.66-1.71,9.14-1.71,6.26.54,8.89,1.62c2.63,1.08,4.74,2.7,6.34,4.86s2.55,4.51,2.86,7.05.46,6.98.46,13.33v10.55Zm-16.03-20.26c0-2.87-.16-4.7-.48-5.5-.32-.8-.97-1.2-1.96-1.2-.84,0-1.48.32-1.92.97-.45.65-.67,2.56-.67,5.73v28.79c0,3.58.15,5.79.44,6.63.29.84.97,1.26,2.04,1.26s1.79-.48,2.09-1.45.46-3.26.46-6.89v-28.34Z"/>
    <path class="cls-1" d="m251.37,142.52h-14.89v-4.57c0-2.13-.19-3.49-.57-4.08s-1.02-.88-1.9-.88c-.96,0-1.7.39-2.19,1.18-.5.79-.74,1.98-.74,3.58,0,2.06.28,3.61.83,4.65.53,1.04,2.04,2.3,4.53,3.77,7.14,4.24,11.63,7.71,13.49,10.43s2.78,7.1,2.78,13.14c0,4.39-.51,7.63-1.54,9.71-1.03,2.08-3.02,3.83-5.96,5.24-2.95,1.41-6.37,2.11-10.28,2.11-4.29,0-7.95-.81-10.99-2.44s-5.02-3.69-5.96-6.21-1.41-6.08-1.41-10.7v-4.04h14.89v7.5c0,2.31.21,3.8.63,4.46.42.66,1.16.99,2.23.99s1.86-.42,2.38-1.26c.52-.84.78-2.08.78-3.73,0-3.63-.5-6-1.49-7.12-1.02-1.12-3.52-2.98-7.5-5.6-3.99-2.64-6.63-4.56-7.92-5.75s-2.37-2.84-3.22-4.95c-.85-2.11-1.28-4.8-1.28-8.07,0-4.72.6-8.18,1.81-10.36,1.21-2.18,3.15-3.89,5.85-5.12,2.69-1.23,5.94-1.85,9.75-1.85,4.16,0,7.71.67,10.64,2.02,2.93,1.35,4.88,3.04,5.83,5.08.95,2.04,1.43,5.52,1.43,10.42v2.44Z"/>
  </g>
  <g>
    <path class="cls-1" d="m24.15,12.8l.25-.49c.23-.23.35-.38.37-.45.02-.07.12-.18.31-.31.19-.13.4-.36.65-.67.25-.32.52-.66.83-1.02h.25l.1-.1c.13-.38.4-.67.81-.9s.76-.5,1.05-.83c.29-.33.6-.63.92-.88s.55-.47.7-.65c.15-.18.26-.3.34-.37v-.15l.05-.1h.29l.15-.1c.34-.28.69-.45,1.04-.52.35-.06.67-.16.97-.29l.32.05c.26,0,.6-.26,1.02-.78.42-.52.62-1.01.62-1.47l-.05-.81c0-.26-.09-.6-.28-1.02s-.4-.65-.65-.71c-.25-.06-.42-.11-.51-.16-.1-.05-.23-.07-.39-.07-.2,0-.43.05-.71.15l-.52-.1c-.28,0-.79.25-1.54.76-.15.16-.33.3-.54.4-.21.11-.67.39-1.37.85l.05.52-.29.2-.61-.05c-.15.05-.25.28-.29.69-.67.38-1.12.71-1.34.99-.22.29-.45.56-.67.82-.77.64-1.15,1.05-1.15,1.23,0,.2-.13.39-.38.59s-.38.36-.38.49.13.24.39.32c-.07.23-.16.34-.29.34l-.59-.05c-.07.07-.2.16-.42.29h-.05l.1.37s-.11.1-.32.2c-.21.1-.32.28-.32.54-.24.25-.37.4-.37.47v.39l-.15.1c-.1-.1-.18-.15-.25-.15s-.42.38-1.05,1.13-.95,1.18-.95,1.27c0,.15.11.25.33.29.22.05.33.16.33.32,0,.07-.11.16-.32.29-.03-.2-.08-.29-.15-.29-.23,0-.5.15-.81.44h-.1c-.2,0-.35.14-.47.43-.11.29-.43.74-.93,1.36-.51.62-.83,1.09-.96,1.41-.13.32-.37.71-.72,1.18-.35.47-.53.9-.53,1.31,0,.07.02.1.05.1.2.13.29.31.29.54,0,.18-.07.27-.2.27-.03,0-.08-.05-.15-.16-.07-.11-.19-.16-.37-.16-.1,0-.2.11-.29.33s-.28.54-.54.94c-.57.44-.86.84-.86,1.2l-.86,1.15-1.4,2.31c-.07.2-.4.6-1.01,1.2-.21.07-.37.25-.47.55-.1.3-.22.49-.37.58-.15.08-.31.23-.48.43-.17.2-.34.32-.5.36l-.1.15c-.07-.1-.1-.2-.1-.29,0-.23-.02-.43-.05-.61.07-.16.1-.28.1-.34l-.05-.39v-.32c0-.13.06-.31.17-.55.11-.24.2-.55.27-.93.06-.38.13-.62.2-.72l.17-.29v-.71l.49-.91.15-.64c.28-.57.47-.98.56-1.23l1.1-2.99c.2-.33.29-.68.29-1.05,0-.1.12-.21.36-.33s.42-.54.55-1.24l.39-.64c.21-.25.32-.38.32-.42.06-.47.33-1.02.78-1.64l.51-.88c.2-.29.29-.52.29-.69l.25-.44c.07-.28.16-.5.29-.66.13-.16.44-.64.93-1.43.49-.79.74-1.29.74-1.48,0-.1-.02-.18-.05-.25.44-.16.66-.75.66-1.77,0-.65-.27-1.13-.8-1.43-.53-.3-.87-.42-1.02-.36l-5.37,2.31c-.16,0-.43.15-.81.44l-.25.22c-.49.18-.87.43-1.15.74-.28.31-.53.49-.76.54-.23.05-.45.22-.65.5-.2.29-.4.45-.6.48-.51.43-.79.73-.86.91-.13,0-.43.2-.91.59l-.64.56c-.88.74-1.32,1.3-1.32,1.69,0,1.11.54,1.67,1.62,1.67.74,0,1.19-.35,1.35-1.05.16-.7.29-1.13.37-1.27l.37-.56c.16-.26.47-.58.92-.94.45-.37,1.05-.83,1.8-1.39l.71-.56c.41-.56.74-.83,1.01-.83h.47l.1-.12c.26-.39.65-.62,1.15-.69.13.08.2.21.2.39,0,.03-.08.25-.25.66l.05.29c0,.07-.07.18-.2.34l-.27.37c-.16.67-.4,1.27-.7,1.8-.3.53-.45.9-.45,1.12l.15.39c-.29,0-.44.24-.44.71-.51.43-.76.81-.76,1.15l.05.15c.21.13.32.26.32.39s-.19.2-.56.2c-.05,0-.11.12-.17.36-.07.24-.26.59-.59,1.07-.33.47-.52.87-.59,1.18s-.16.52-.28.62c-.12.11-.19.27-.21.5-.02.23-.07.42-.15.58-.08.16-.12.31-.12.48,0,.1.02.23.05.39-.36.05-.54.22-.54.52l.05.69c0,.13-.12.25-.37.37-.13.26-.2.46-.2.59l.1.37c0,.16-.05.39-.15.69-.16.18-.25.5-.25.96,0,.1-.06.19-.18.28s-.18.2-.18.33c0,.1.04.2.11.32.07.11.11.19.11.22v.05c-.18.78-.27,1.23-.27,1.32,0,.65.18,1.48.54,2.46.36.99.7,1.56,1.03,1.7.03,0,.09.05.17.14.08.09.24.21.47.36l.76.51c.1-.03.24-.05.42-.05.69,0,1.28-.3,1.79-.91.31,0,.48-.09.52-.28.03-.19.13-.36.29-.53l.56-.71c0-.52.2-.78.59-.78l1.91-2.57.86-1.45c.57-.75.89-1.15.96-1.2v-.32l.15-.34c.2-.03.33-.16.39-.38.06-.22.15-.37.26-.45.11-.08.19-.17.26-.27-.03-.05.04-.16.23-.33.19-.17.43-.43.72-.77,0-.03.03-.16.1-.37l.25-.2s.15-.25.34-.74c.29-.11.49-.29.58-.54s.18-.42.28-.52l.15-.22c.13-.23.22-.36.27-.39l.44.05c.11,0,.22-.21.32-.64s.23-.71.39-.86c.33-.1.49-.3.49-.61.1-.13.29-.33.56-.61l.39-.25.2-.25c.06-.07.26-.31.58-.75s.6-.71.85-.82Z"/>
    <path class="cls-1" d="m80.33,22.95c-.23,0-.56.22-1,.66l-3.21,2.45c-.49.2-.84.36-1.04.48s-.36.2-.48.23l-.54.54-.39-.05c-.34,0-.56.05-.66.15-.07-.03-.11-.07-.15-.1.23-.11.34-.26.34-.44v-1.01c0-.1.02-.15.05-.15.18-.16.27-.29.27-.37l-.15-.59c0-.1.11-.23.34-.39l.1-.51c.34-.07.65-.8.93-2.21l.42-1.91c0-.44-.26-.9-.77-1.39-.51-.48-1.01-.72-1.48-.72-.33,0-.59.1-.8.31s-.44.37-.7.5l-.32.15c-.18.26-.42.49-.71.67-.29.19-.49.38-.59.58-.1-.03-.23-.05-.39-.05s-.38.13-.65.4c-.27.27-.47.43-.59.48-.12.05-.22.11-.28.17l-.39.29c-.25.08-.53.37-.86.86l-.25.1c-.23.25-.4.37-.52.37h-.15l-.39.34.05.15-.03.16c-.06-.04-.15-.07-.27-.07-.16,0-.34.11-.52.32l-.2.25-.29.15-.61.54c-.62.38-1.08.65-1.36.81-.29.16-.47.4-.55.71-.26.2-.39.43-.39.71-.03.03-.07.05-.1.05l-.25-.1h-.1c-.21,0-.37.13-.47.39-.33.33-.56.52-.69.59-.15.28-.34.45-.57.52l-.79.22c-.08,0-.2-.18-.34-.54l-.49-1.03v-.22c0-.13.04-.21.12-.25.33-.29.49-.83.49-1.59l-.05-.47.2-1.35v-.1l-.1-.66.05-.44c0-.41-.24-.95-.72-1.62s-1.14-1.01-1.97-1.01c-.11,0-.33.06-.65.18-.32.12-.56.21-.72.26-.16.05-.26.09-.29.12l-.34.2-.37.1c-.31.25-.59.39-.83.44-.25.05-.44.16-.59.32-.15.16-.44.34-.88.54l-.2.37-.24.2c-.1.1-.35.22-.76.37-.41.15-.69.42-.86.81-.03.08-.15.18-.36.29-.2.11-.39.24-.55.38-.16.14-.29.21-.39.21-.16,0-.25-.06-.25-.2,0-.15.1-.37.29-.66.1-.41.15-.73.15-.96l-.05-.66c0-.39-.24-.92-.71-1.58s-1.16-.99-2.06-.99c-.34,0-.61.23-.81.69-.2.46-.57.79-1.13,1.01l-.17.25c-.38.02-.75.16-1.13.44-.15.11-.33.23-.52.35-.04-.12-.12-.2-.27-.2-.1,0-.19.04-.27.11-.08.07-.2.14-.36.2-.16.06-.25.26-.28.6l-1.1.71c-.26.08-.39.25-.39.49v.17c.03.1.05.18.05.25s-.03.1-.1.1-.1-.07-.1-.22-.05-.22-.15-.22c-.07,0-.14.04-.23.12-.09.08-.25.2-.48.37s-.42.34-.58.53c-.16.19-.35.3-.58.33-.23.03-.39.13-.48.29-.09.16-.31.28-.66.36-.35.07-.63.32-.82.75l-.1.05h-.34c-.11,0-.24.07-.37.2l-.2.17c-.13.07-.23.2-.29.39l-.25.15c-.18,0-.43.1-.74.29s-.52.42-.64.66l-.25-.1c-.2.07-.34.1-.44.1-.31,0-.6.08-.87.25-.27.16-.56.25-.87.25l-1.18.17c-.87,0-1.3-.24-1.3-.71,0-.03.03-.2.1-.5.06-.3.11-.55.15-.75.26-.16.51-.25.76-.25l.49-.51.25.05.32-.29c.26-.03.39-.15.39-.34,0-.18.06-.35.2-.51.2.07.31.1.34.1.21,0,.62-.3,1.22-.91.26,0,.43-.11.51-.32s.26-.41.54-.59l.44.05c.31-.64.59-.96.86-.96.07,0,.11.02.15.06.03.04.08.06.15.06.1,0,.22-.08.38-.23.15-.16.31-.27.45-.34.15-.07.36-.25.64-.53.31-.06.73-.36,1.25-.88.52-.52.78-1.04.78-1.54,0-.28-.15-.58-.45-.91-.3-.33-.63-.49-.99-.49-.29,0-.54-.05-.75-.15s-.34-.15-.4-.15l-1.03.05c-.31,0-.63.06-.97.17-.33.11-.61.17-.82.17l-.39-.1s-.06.02-.1.05c-.1.13-.29.28-.56.44-1.09.39-1.76.71-2.01.96l-.29.42c-.51.28-.78.6-.81.98s-.24.58-.64.61l-.52.42c-.23.46-.38.74-.44.86l-.56,1.03c-.1.28-.18.44-.25.49l-.34,1.28c-.03.13-.21.32-.53.58s-.48.75-.48,1.48c0,.26.11.42.32.48.21.06.37.15.47.28.38,1.16.6,1.74.66,1.74l.29-.05c.2.74.53,1.1,1.01,1.1.11.05.27.13.47.25.2.11.38.17.54.17.29,0,.61-.05.93-.15l.44-.15s.1.07.2.2.2.2.29.2l.69-.1s.15-.04.32-.12l2.06-.74c.34-.23.57-.36.69-.39.11-.03.19-.07.22-.1.16-.15.44-.25.82-.29s.62-.23.7-.55c.08-.32.23-.48.44-.48h.44l.15-.05c.15-.2.47-.41.96-.64.13-.15.22-.32.26-.52.04-.2.14-.29.31-.29.06,0,.1.02.1.05l.2.2c.06,0,.16-.07.27-.2.11-.13.25-.28.42-.44l.83-.96c.05-.08.12-.14.19-.19.04,0,.07.02.11.02h.15c.31-.23.52-.36.64-.39.12-.03.17-.1.17-.2.2-.31.38-.5.54-.56.16-.06.59-.35,1.28-.86l.39.07c.31-.44.56-.68.74-.71.18-.03.47-.24.88-.61l.05.1c0,.07-.11.27-.33.63s-.34.6-.36.76c-.02.16-.07.27-.15.36s-.12.17-.12.27c0,.34-.03.52-.1.52h-.32c-.07.03-.2.18-.39.45-.2.27-.39.45-.58.54s-.28.24-.28.45v.2l-.05.1c-.7.16-1.05,1.15-1.05,2.97,0,.25.11.54.33.9.22.35.42.55.6.6.18.05.33.11.45.17.12.07.22.1.28.1.15,0,.33-.22.54-.66.15-.05.32-.17.52-.36.2-.19.31-.28.34-.28h.25l.1-.1c.08-.23.14-.35.17-.37.43-.05.69-.18.79-.39.1-.54.25-.81.47-.81.03,0,.18.1.44.29.31-.36.48-.54.51-.54.29-.2.44-.33.44-.39,0-.38.11-.58.33-.63.22-.04.57-.28,1.06-.72.49-.44,1.04-.91,1.65-1.41.61-.5.92-.77.92-.82.2-.13.33-.23.39-.29l.2-.15c.28-.08.46-.17.56-.27.2,0,.38-.07.56-.21.18-.14.49-.31.93-.53l.17-.05c.2-.18.36-.27.49-.27.29,0,.44.17.44.51l-.05.59.1.61-.15,1.2c0,.07.02.16.07.28.05.12.07.22.07.28s-.07.16-.2.29c.1.23.15.42.15.56,0,.26.04.48.13.66s.14.29.14.34v.05c-.15.29-.22.46-.22.49s.04.13.11.28c.07.16.11.27.11.33.03.16.23.51.58,1.04.35.53.64.83.87.91.23.07.45.18.67.31.22.13.4.2.53.2l.47-.1.69.1c.1,0,.2-.05.32-.15l.34-.25c.56-.29.89-.6,1.01-.91l.2-.1h.39c.15-.11.22-.29.22-.52l.96-.81c.13-.13.28-.25.44-.34l.66-.34,1.25-1.32c.43-.44.74-.78.95-1.01s.31-.49.31-.78h0c.11.16.29.25.55.25.08,0,.25-.09.49-.28.25-.19.41-.4.49-.62.08-.23.21-.38.39-.44l.54-.15c.29-.08.53-.25.71-.51.03-.36.13-.54.29-.54h.1l.32.15.2-.05c.13-.21.27-.33.42-.37.15-.03.22-.08.22-.15.15-.16.24-.25.27-.25l.44.15c.34-.26.55-.39.61-.39.2,0,.29.1.29.29,0,.05-.07.2-.22.44-.15.25-.23.48-.26.7-.02.22-.1.4-.23.53l-.25.34-.1.44c-.1.31-.16.53-.2.66-.1.07-.18.2-.25.39l-.12.61c-.03.13-.07.3-.1.5-.03.2-.08.36-.15.48-.07.11-.1.39-.1.83l.05.15-.05.34s.05.18.15.45c.1.27.15.44.15.5l-.05.34v.15c0,.38.2.73.6,1.07.4.33.74.5,1.02.5l.49-.15.37.05c.1,0,.23-.09.39-.26.16-.17.36-.27.58-.28.22-.02.38-.06.48-.12l.44-.25c.21-.16.45-.3.72-.4.27-.11.42-.18.45-.21l.15-.25,1.05-.76c.2-.13.44-.35.75-.65.3-.3.67-.6,1.1-.9.43-.29.7-.52.8-.67.1-.16.22-.3.38-.43s.29-.36.4-.7c.11-.33.24-.62.38-.86.14-.24.21-.54.21-.9,0-.31-.12-.47-.37-.47Zm-51.92-.71c.32-.65.63-1.06.93-1.21.3-.15.61-.36.93-.61s.51-.4.58-.43l.29-.15.42-.1c.29-.2.47-.29.54-.29h.56c.26-.16.46-.25.59-.25.31,0,.47.1.47.29,0,.1-.14.2-.43.29s-.57.37-.85.81l-.25.1c-.13.16-.33.33-.6.5-.27.17-.42.29-.45.36l-.2.2c-.51.33-.9.6-1.16.83-.27.23-.56.42-.87.56l-.83.37c-.1,0-.15-.05-.15-.15s.16-.47.48-1.13Zm36.8,1.57v-.03s0,.05,0,.05v-.02Z"/>
    <path class="cls-1" d="m76.49,11.39c.35.32.64.48.87.48.34,0,.67-.12.97-.36.3-.24.46-.52.48-.83.02-.32.05-.54.1-.65s.07-.19.07-.22c0-.34-.16-.74-.48-1.19-.32-.45-.62-.71-.92-.77-.57.2-.92.3-1.03.32-.52.08-.78.51-.78,1.27v.15l.15.96c.03.25.22.53.58.85Z"/>
    <path class="cls-1" d="m115.24,22.36c-.28,0-.55.2-.81.6-.26.4-.54.67-.84.8-.3.13-.48.31-.53.53-.05.22-.2.33-.44.33l-.39.34c-.2.16-.37.37-.51.61l-.24.1c-.1.03-.26.2-.5.5-.24.3-.62.52-1.14.65-.11-.1-.17-.3-.17-.61l.1-.69-.05-.61c0-.13.07-.28.21-.45.14-.17.21-.31.21-.4v-.05l.34-1.01c.03-.16.08-.31.15-.44.95-.95,1.42-1.95,1.42-3.02,0-.9-.35-1.35-1.05-1.35-.98,0-1.62.3-1.93.9s-.54.9-.7.9c-.13,0-.21-.15-.25-.44-.1-1.41-.66-2.11-1.67-2.11-.1,0-.18.02-.25.05l-.39.2h-.05c-.25-.13-.4-.2-.47-.2h-.15c-.8.41-1.24.61-1.3.61h-.2c-.21,0-.5.11-.87.32s-.74.39-1.13.53c-.38.14-.73.36-1.03.65-.3.29-.5.46-.6.49-.67.34-1.29.8-1.87,1.37l-.74.74c-.41.28-.69.53-.83.76-.15.23-.34.45-.59.67-.25.22-.36.43-.34.62l-.25.32c-.1.07-.29.32-.58.77-.29.45-.43.71-.43.77l.05.66c-.31,0-.47.1-.47.29l.05.81v.15c-.03.07-.05.2-.05.39,0,.41.07.73.22.96l.25,1.01c.05.34.37.64.96.88.59.25,1.1.37,1.54.37.54,0,1.46-.43,2.77-1.3l.15-.15c.38-.2.66-.36.86-.49l1.86-1.52c.23-.16.42-.37.56-.62.15-.25.24-.4.27-.43l.47.05.25-.25c.08-.11.23-.21.44-.28.21-.07.33-.17.37-.28l.1-.15c.2-.13.36-.28.49-.44.08-.31.19-.52.32-.61.23,0,.43-.08.6-.25.17-.16.29-.25.36-.25s.1.05.1.15l-.15,1.2c0,.07.02.15.05.25.03.1.05.19.05.27,0,.07-.02.11-.05.15s-.05.08-.05.15.04.15.12.25c.08.1.12.18.12.25l-.1.47c0,.33.07.58.22.77s.23.34.25.45c.02.11.07.22.17.32.28.03.55.11.81.23s.55.18.86.18c.06,0,.18-.04.35-.14.17-.09.43-.18.78-.28.35-.1.61-.23.77-.39l.05-.25c.23-.06.42-.14.59-.22.26-.29.5-.46.72-.49s.39-.18.51-.44c.12-.26.36-.45.72-.56l.25-.34c.31-.21.5-.39.58-.54.07-.15.23-.29.48-.42l.17-.32.1-.69c.33-.57.49-1.13.49-1.67,0-.1-.07-.23-.2-.39s-.24-.25-.34-.25Zm-8.61-.02c-.58.59-1.03,1-1.34,1.23-.07.2-.27.39-.6.58-.33.19-.54.46-.6.82-.25.11-.41.23-.49.34-.08.11-.3.25-.66.42l-.52.39c-.62.34-1.07.6-1.35.76-.11.18-.28.32-.49.43-.21.11-.36.2-.44.29-.08.09-.16.14-.25.16-.08.02-.16.06-.22.12l-.47.25c-.2.07-.33.13-.39.2s-.31.18-.72.36c-.42.17-.69.26-.82.26-.31,0-.47-.4-.47-1.2,0-.13.09-.31.28-.53.19-.22.3-.47.33-.74.03-.27.15-.44.34-.51.2-.07.36-.17.49-.28l.17-.42s.21-.25.64-.59c.11-.44.37-.73.76-.86.65-.46,1.04-.81,1.15-1.05.2,0,.51-.16.93-.48.43-.32.9-.54,1.43-.67.53-.13.89-.25,1.08-.36.19-.11.41-.16.67-.16l.49.1.32-.05.34.17.47-.05.44.05.2-.12h.05c.07,0,.1.02.1.07,0,.13-.29.49-.87,1.08Z"/>
    <path class="cls-1" d="m185.94,10.15l.59-.1c.82-.25,1.25-.37,1.3-.37.11,0,.26-.03.44-.1s.35-.1.51-.1c.07,0,.1.02.1.05.34.44.55.66.61.66.38,0,.75-.25,1.13-.74l1.13-1.42c.1-.31.22-.59.38-.83.16-.25.23-.42.23-.51,0-.47-.27-.71-.81-.71h-.1l-.34.15c-.57.03-.96.12-1.17.26-.21.14-.34.21-.4.21l-.2-.07h-.29c-.28.11-.47.18-.59.2-.11.02-.39.11-.82.27-.43.16-.67.25-.7.25-.11,0-.25-.05-.42-.15l-.15.05c-.26.13-.44.2-.54.2-.28,0-.42-.06-.42-.2,0-.1.01-.18.04-.26.02-.07.03-.22.02-.44,0-.22.03-.44.11-.66.08-.22.12-.34.12-.36l-.25-.93c-.16-.78-.45-1.18-.86-1.18-.31,0-.71.29-1.2.86-.15.31-.34.47-.59.47-.05,0-.12.09-.2.26-.08.17-.16.3-.22.38-.28.59-.56.99-.83,1.2-.28.21-.53.55-.75,1.02s-.4.7-.53.7l-.4-.05s-.07.02-.12.05c-.05.03-.18.08-.38.15-.21.07-.46.18-.77.33-.3.16-.65.23-1.04.23h-.05l-.22-.1h-.05l-.25.25-.34.1c-.2-.07-.32-.1-.37-.1-.33,0-.59.06-.8.17-.21.11-.34.17-.4.17l-.39.1c-.16.07-.45.13-.87.18-.42.06-.73.15-.93.28s-.39.2-.55.2l-.32-.05-1.01.27c-.74.18-1.21.33-1.42.45s-.37.18-.47.18h-.1l-.27-.1h-.05l-1.01.39c-2.78.26-4.17,1.2-4.17,2.82,0,.29.11.63.33.99.22.37.41.55.58.55l.2-.05c.69-.6,1.13-.94,1.32-1.01l2.5-.69c.16.03.26.05.29.05.25,0,.63-.14,1.15-.42l.56.05c.26-.16.46-.25.59-.25h.22l1.01-.29c.49-.31,1.22-.51,2.18-.59l1.08-.12.34.05c.07,0,.16-.07.27-.22s.29-.29.54-.44c.33.1.49.17.49.22l1.05-.52c.06.07.11.13.15.2-.03.44-.2.91-.5,1.41s-.51.9-.63,1.19c-.12.29-.64.97-1.57,2.02-.93,1.05-1.58,1.7-1.93,1.92s-.54.55-.58.96l-.12.1h-.2l-.15.1-.05.2-.25.15c-.28,0-.43.2-.47.61l-.1.1c-.13,0-.29.13-.49.38-.2.25-.51.55-.93.9s-.64.57-.64.69c0,.02-.02.03-.02.04-.11.07-.22.14-.3.2-.11.08-.2.15-.3.21,0,0-.02,0-.02.01-.08.05-.16.09-.23.12-.16.07-.29.18-.4.33s-.25.33-.42.53l-.46.25c-.36.38-.62.59-.77.64-.16.05-.31.18-.48.38s-.63.47-1.4.8c-.07-.1-.1-.2-.1-.29,0-.08.1-.29.29-.61v-.59l.29-.81-.05-1.01s.07-.19.2-.47c-.03-.16-.11-.4-.22-.7-.11-.3-.17-.55-.17-.75,0-.49-.19-1.33-.58-2.53-.38-1.19-.78-1.91-1.18-2.15-.4-.24-.72-.36-.97-.36-.43,0-.75.12-.97.37s-.42.69-.6,1.34c-.18.65-.35,1.05-.5,1.2s-.28.31-.38.45l-.34.61c-.15.25-.49.63-1.03,1.15-.43.41-.76.72-1.01.93l.02-.12c0-.25-.11-.37-.32-.37-.1,0-.19.04-.27.11-.08.07-.2.14-.36.2s-.25.26-.28.6l-1.1.71c-.26.08-.39.25-.39.49v.17c.02.08.03.14.04.19-.05.03-.1.07-.15.1-.02-.04-.03-.09-.03-.17,0-.15-.05-.22-.15-.22-.07,0-.14.04-.23.12-.09.08-.25.2-.48.37-.23.16-.42.34-.58.53-.16.19-.35.3-.58.33-.23.03-.39.13-.48.29-.09.16-.31.28-.66.36-.35.07-.63.32-.82.75l-.1.05h-.34c-.12,0-.24.07-.37.2l-.2.17c-.13.07-.23.2-.29.39l-.25.15c-.18,0-.43.1-.74.29s-.52.42-.64.66l-.25-.1c-.2.07-.34.1-.44.1-.31,0-.6.08-.87.25-.27.16-.56.25-.87.25l-1.18.17c-.87,0-1.3-.24-1.3-.71,0-.03.03-.2.1-.5.06-.3.11-.55.15-.75.26-.16.51-.25.76-.25l.49-.51.24.05.32-.29c.26-.03.39-.15.39-.34,0-.18.06-.35.2-.51.2.07.31.1.34.1.21,0,.62-.3,1.22-.91.26,0,.43-.11.51-.32s.26-.41.54-.59l.44.05c.31-.64.59-.96.86-.96.06,0,.12.02.15.06.03.04.08.06.15.06.1,0,.22-.08.38-.23.15-.16.3-.27.45-.34.15-.07.36-.25.63-.53.31-.06.73-.36,1.25-.88.52-.52.78-1.04.78-1.54,0-.28-.15-.58-.46-.91-.3-.33-.63-.49-.99-.49-.29,0-.54-.05-.75-.15-.21-.1-.34-.15-.4-.15l-1.03.05c-.31,0-.63.06-.97.17-.34.11-.61.17-.82.17l-.39-.1s-.07.02-.1.05c-.1.13-.29.28-.56.44-1.09.39-1.76.71-2.01.96l-.29.42c-.51.28-.78.6-.81.98-.03.38-.25.58-.64.61-.02-.29-.18-.44-.48-.44-.13,0-.27.08-.43.25-.15.16-.28.26-.38.29s-.16.07-.2.1l-.2.27c-.26.15-.63.43-1.1.83-.42.03-.7.11-.82.23s-.29.22-.51.31c-.22.08-.43.22-.61.4-.19.19-.48.36-.87.53l-.91.59c-.07.11-.17.2-.32.25-.15.05-.22.16-.22.32l.05.39-.22.1h-.05c-.2-.13-.31-.2-.34-.2-.07,0-.16.07-.27.21-.11.14-.25.22-.42.23-.16.02-.29.14-.37.37l-.1.05c-.2.07-.34.17-.43.31-.09.14-.18.21-.28.21-.03,0-.16-.04-.39-.12-.16.18-.26.27-.29.27-.03-.07-.05-.11-.05-.15l.1-.59c.07-.47.21-.78.44-.92.23-.14.38-.41.47-.82l.1-.49c.29-.52.44-.79.44-.81l-.1-.54c0-.26.16-.42.49-.47l.17-.2c.03-.23.13-.49.29-.8.16-.3.28-.64.34-1.02.15-.13.3-.4.47-.8.16-.4.33-.75.49-1.04.16-.29.25-.56.25-.81v-.1l.32-.47c.33-.13.58-.46.75-.98.17-.52.37-.9.6-1.13.6-.36.98-.8,1.13-1.32.15-.52.29-.86.44-1.01.15-.15.34-.44.58-.87.24-.43.36-.69.36-.77,0-.03-.05-.15-.15-.34.16-.1.34-.33.53-.7.19-.37.28-.58.28-.65,0-.03-.07-.08-.2-.13-.13-.06-.2-.13-.2-.23s.14-.2.42-.29c.28-.1.45-.3.5-.6.06-.3.15-.81.28-1.51.13-.7.2-1.12.2-1.25l-.05-.71c0-.26-.02-.47-.05-.63-.03-.16-.08-.45-.14-.88-.06-.43-.22-.82-.49-1.15-.27-.33-.46-.5-.58-.5-.34,0-.68.13-1.02.4-.33.27-.54.54-.6.81-.07.27-.2.53-.39.77-.2.25-.39.7-.59,1.35-.2.65-.38,1.01-.56,1.08-.03.43-.07.68-.1.76l-.37.29-.25.81c-.31.51-.79,1.75-1.45,3.73-.03.2-.15.5-.36.92-.2.42-.43,1.09-.66,2.01-.24.92-.52,1.53-.85,1.83,0,.36-.35,1.1-1.05,2.21-.38.34-.93.88-1.67,1.62l-1.35,1.52c-.54.62-.86.93-.96.93-1.67,1.37-2.5,2.23-2.5,2.57l-.22,1.52c0,.15.17.33.52.54.49-.15.84-.42,1.05-.81.47-.1.78-.32.91-.66.26-.6.6-.91,1.01-.91.39-.57.69-.85.91-.83v.2c0,.23-.1.46-.31.7-.2.24-.34.45-.4.65l-.2.56c-.16.25-.25.56-.25.96,0,.13-.06.25-.17.34-.49.51-.74.99-.74,1.45-1.08.47-1.62.79-1.62.96s.17.34.5.53c.34.19.5.33.5.43,0,.15-.12.32-.36.52-.24.2-.39.46-.45.78l-.59,1.47c-.41.56-.81,1.59-1.2,3.11,0,.1-.08.21-.23.34-.16.13-.23.23-.23.29l-.15.61-.25.54-.61,1.96c-.2.16-.31.38-.36.64-.04.26-.11.6-.21,1.01-.1.41-.2.74-.29.98-.11-.02-.26.37-.44,1.15l-.05.25c-.16.38-.31.76-.43,1.14s-.22.62-.28.7c-.07.08-.11.19-.15.32l-.15.52c-.13.26-.2.49-.2.69v.22c.03.34.07.6.1.78.2.2.29.37.29.52,0,.59.17,1.02.51,1.29.34.27.52.4.54.4.13,0,.37-.2.71-.59.23-.16.5-.28.81-.34.46-.57.79-.86,1.01-.86l.1-.1c.13-.21.26-.38.39-.49.13-.11.22-.24.27-.37.05-.13.11-.2.17-.2h.07c.1.1.16.15.2.15.46-.38.76-.71.91-1.01l.39-.25c.1-.15.26-.31.48-.48.22-.17.45-.45.67-.85l.2-.05c.13-.33.27-.51.42-.54l.15-.1c.2-.25.39-.43.58-.56.19-.13.31-.35.38-.66.26-.13.52-.36.77-.67.25-.32.45-.53.6-.63.15-.1.22-.23.22-.39l-.05-.66.05-.1c.21-.07.56-.35,1.05-.86.23-.65.45-1.04.66-1.15l.1-.29v-.61c.03-.1.14-.16.33-.2.19-.03.28-.13.28-.29v-.1c-.05-.31-.07-.5-.07-.56,0-.1.11-.26.33-.48s.33-.7.33-1.43c0-1-.39-2.04-1.18-3.13-.78-1.09-1.24-1.58-1.37-1.48-.15-.2-.22-.33-.22-.39,0-.15.09-.3.28-.47.19-.16.35-.25.48-.25h.15l.32-.29c.2-.06.35-.18.47-.33.11-.16.24-.27.38-.33.14-.06.35-.21.65-.44.29-.23.56-.38.81-.47.2-.29.29-.46.29-.49l.47.05c.07-.03.15-.1.25-.2,1.85-1.52,2.9-2.28,3.16-2.28h.15c.2-.16.36-.34.49-.54.03,0,.13.02.28.04l-.34,1.26c-.03.13-.21.32-.53.58s-.48.75-.48,1.48c0,.26.11.42.32.48.21.06.37.15.47.28.38,1.16.6,1.74.66,1.74l.29-.05c.2.74.53,1.1,1.01,1.1.11.05.27.13.46.25.2.11.38.17.54.17.29,0,.61-.05.93-.15l.44-.15s.1.07.2.2.2.2.29.2l.69-.1s.16-.04.32-.12l2.06-.74c.34-.23.57-.36.69-.39s.19-.07.22-.1c.16-.15.44-.25.82-.29s.62-.23.7-.55.23-.48.44-.48h.44l.15-.05c.15-.2.47-.41.96-.64.13-.15.22-.32.26-.52s.14-.29.31-.29c.06,0,.1.02.1.05l.2.2c.06,0,.15-.07.27-.2.11-.13.25-.28.42-.44l.64-.74,1.52-1.12s.02-.01.03-.02l1.63-1.31c.16-.03.3-.16.42-.37.12-.21.33-.4.65-.58.32-.17.53-.36.63-.58.1-.21.41-.57.93-1.08.52-.51.83-.76.93-.76.05,0,.12.15.21.44s.13.45.13.47l-.1.61s.03.16.1.39l-.1.2.05.52-.25.49c0,.1.07.24.2.42l.05.2c0,.16-.1.27-.29.31-.2.04-.29.14-.29.28v.37c-.1.25-.15.39-.15.44v.25l-.86,1.1-.42.86c-.11.28-.2.42-.25.42h-.2l-.1.05c-.44.39-.86.59-1.25.59-.07,0-.19-.06-.37-.2l-.39.05c-.07,0-.1-.02-.1-.05-.25-.29-.45-.44-.61-.44-.13,0-.3.05-.5.15-.21.1-.32.15-.36.15-.74.1-1.19.32-1.37.67-.18.35-.35.58-.5.7s-.23.23-.23.34c0,.13.09.3.28.51.19.21.4.49.62.85s.52.65.87.88c.35.24,1,.36,1.95.36.29,0,.69-.17,1.18-.5.49-.33.85-.5,1.08-.5h.34c.13-.16.45-.34.96-.54l.42-.32c.2-.2.49-.36.89-.49.4-.13.6-.24.6-.32l.2-.29.56-.15c.36-.06.73-.25,1.1-.54l.1-.07c.11-.03.2-.07.25-.1.05-.23.27-.39.66-.49.07-.06.15-.25.25-.56l.51-.1c.02-.06.32-.37.91-.91.08-.02.12-.05.18-.07.04.04.1.07.16.07s.14-.04.22-.12c.08-.08.22-.17.41-.27s.33-.25.43-.44c.64-.18,1.04-.52,1.2-1.01.24.02.48-.23.71-.72.12-.05.2-.11.26-.16.26-.04.43-.19.52-.47.06-.05.11-.1.18-.16.05-.04.09-.09.14-.13.27-.05.49-.21.65-.49.2-.34.47-.54.81-.59.46-.74.73-1.12.81-1.15.1.03.16.07.2.1l.2-.34c.25-.18.45-.37.61-.56.16-.2.29-.29.39-.29.06,0,.1.02.1.05-.23.23-.34.36-.34.39v.76l-.56,2.11.1.51-.15,2.16.15.49-.05.96c0,.36.21,1.17.64,2.43.43,1.26,1.07,1.89,1.94,1.89.16,0,.36-.11.6-.32.24-.21.36-.43.38-.65s.05-.43.1-.61c.05-.19.07-.33.07-.43,0-1.16-.24-2.01-.73-2.56-.48-.55-.72-1.05-.72-1.51,0-.03.03-.08.1-.15-.1-.39-.15-.66-.15-.81l.15-1.1-.05-.39c.26-.54.39-.99.39-1.35v-.15c-.03-.15-.05-.24-.05-.27,0-.05.11-.47.34-1.25l-.1-.39c0-.25.1-.47.29-.66l.07-.2c0-.13.02-.22.07-.27.05-.05.11-.22.2-.53.08-.3.21-.59.39-.86.18-.27.36-.52.54-.75l.44-.66c.13-.1.27-.23.42-.4.15-.17.31-.27.49-.31l.1-.15c.11-.33.35-.54.71-.64l1.1-2.01c.16-.11.25-.19.25-.22.25-.59.58-.99,1.01-1.2l1.25-.25c.25-.07.4-.1.47-.1Zm-40.81,12.09c.32-.65.63-1.06.93-1.21.3-.15.61-.36.93-.61.32-.25.51-.4.58-.43l.29-.15.42-.1c.29-.2.47-.29.54-.29h.56c.26-.16.46-.25.59-.25.31,0,.46.1.46.29,0,.1-.14.2-.43.29-.29.1-.57.37-.85.81l-.24.1c-.13.16-.33.33-.6.5-.27.17-.42.29-.45.36l-.2.2c-.51.33-.9.6-1.17.83-.27.23-.56.42-.87.56l-.83.37c-.1,0-.15-.05-.15-.15s.16-.47.48-1.13Zm-12.02,12.11c0,.29-.07.53-.2.7-.13.17-.22.39-.27.66-.05.27-.11.51-.2.72-.08.21-.17.49-.27.85s-.34.79-.72,1.31c-.38.52-.58.85-.58.98v.1l.1.29-.05.17c-.15.13-.26.29-.34.49-.08.2-.27.47-.56.81-.07.31-.17.52-.31.64-.14.11-.26.28-.36.49-.1.21-.24.4-.43.55-.19.15-.35.49-.48,1.02l-.1.05h-.34c-.06.08-.12.2-.17.34-.05.15-.11.24-.17.27l-.17.05c-.13.13-.25.21-.34.25s-.19.13-.27.28c-.08.16-.21.25-.39.28l-.05.1c-.11.33-.25.5-.4.53s-.27.07-.33.13c-.15.36-.27.54-.37.54-.06,0-.11-.03-.15-.1.15-.51.27-.91.37-1.21.1-.3.2-.68.29-1.14.13-.13.24-.42.32-.87.08-.45.2-.83.34-1.13.15-.3.33-.72.55-1.25.22-.53.35-.92.38-1.17l.15-.17c.21-.15.38-.49.49-1.03.11-.54.17-.92.17-1.13l-.05-.54c0-.07.02-.13.05-.2h.25c.28,0,.46-.17.54-.52.08-.34.26-.8.53-1.36.27-.56.4-.88.4-.94l-.1-1.05c.43-.23.64-.42.64-.56l-.05-.54v-.1c0-.25.09-.4.26-.47.17-.06.27-.11.31-.15l.2-.1c.13,0,.34.11.63.33.29.22.45.41.48.58.03.16.07.26.1.29.46.77.69,1.41.69,1.91Z"/>
    <path class="cls-1" d="m210.37,9.96c.64,0,1.03-.19,1.18-.55.15-.37.27-.62.37-.74.09-.12.14-.22.14-.28,0-.43-.23-.86-.69-1.3-.47-.44-.94-.66-1.41-.66-.14,0-.22.01-.25.04l-.54.13c-.31,0-.47.13-.49.39s-.04.46-.07.6c-.04.14-.05.24-.05.31,0,.16.15.55.45,1.15.3.6.76.91,1.36.91Z"/>
    <path class="cls-1" d="m212.67,32.35c-.16,0-.28.01-.34.04l-1.23.2-.49-.05c-.28,0-.76.06-1.46.18-.69.13-1.11.21-1.24.26-.14.05-.29.08-.46.1-.16.02-.41.06-.76.12l-1,.3c-.07,0-.1-.05-.1-.15,0-.05.09-.28.28-.7.19-.42.35-.63.48-.65l-.05-.15c0-.73.08-1.24.25-1.52.09-.16.2-.39.3-.69.11-.31.19-.47.24-.51.04-.03.07-.1.07-.19l.05-.42.19-.29c.07-.58.2-1.04.39-1.39.18-.35.28-.72.28-1.12l.32-1.1c.21-.91.43-1.54.66-1.86.05-.54.14-1.16.27-1.87.13-.26.23-.63.29-1.1l.15-.44c.16-.25.24-.52.24-.81,0-.51-.19-1-.57-1.48-.39-.49-.79-.73-1.22-.73-.31,0-.53.08-.66.25l-.29.34c-.72.44-1.2.81-1.45,1.12-.24.3-.38.45-.42.45-.55.29-1.3.79-2.25,1.5-.39.5-.71.82-.96.94-.1.05-.22.14-.36.27,0,0,0,0,0,0-.02,0-.03-.02-.05-.02-.1,0-.19.04-.27.11-.08.07-.2.14-.36.2-.15.05-.23.24-.27.54,0,0,0,0,0,0-.22.13-.37.25-.47.35l-.64.41c-.26.08-.39.25-.39.49v.17c.03.1.05.18.05.25s-.03.1-.1.1-.1-.07-.1-.22-.05-.22-.15-.22c-.07,0-.14.04-.23.12-.09.08-.25.2-.48.37s-.42.34-.58.53c-.16.19-.35.3-.58.33-.23.03-.39.13-.48.29-.09.16-.31.28-.66.36-.35.07-.62.32-.82.75l-.1.05h-.34c-.12,0-.24.07-.37.2l-.2.17c-.13.07-.23.2-.29.39l-.25.15c-.18,0-.43.1-.74.29s-.52.42-.64.66l-.25-.1c-.2.07-.34.1-.44.1-.31,0-.6.08-.87.25-.27.16-.56.25-.87.25l-1.18.17c-.87,0-1.3-.24-1.3-.71,0-.03.03-.2.1-.5.07-.3.11-.55.15-.75.26-.16.51-.25.76-.25l.49-.51.24.05.32-.29c.26-.03.39-.15.39-.34,0-.18.07-.35.2-.51.2.07.31.1.34.1.21,0,.62-.3,1.22-.91.26,0,.43-.11.51-.32s.26-.41.54-.59l.44.05c.31-.64.59-.96.86-.96.06,0,.11.02.15.06.03.04.08.06.15.06.1,0,.22-.08.38-.23.16-.16.31-.27.45-.34.15-.07.36-.25.64-.53.31-.06.73-.36,1.25-.88.52-.52.78-1.04.78-1.54,0-.28-.15-.58-.45-.91-.3-.33-.63-.49-.99-.49-.29,0-.54-.05-.75-.15-.21-.1-.34-.15-.4-.15l-1.03.05c-.31,0-.63.06-.97.17-.33.11-.61.17-.82.17l-.39-.1s-.07.02-.1.05c-.1.13-.29.28-.56.44-1.09.39-1.76.71-2.01.96l-.29.42c-.51.28-.78.6-.81.98-.03.38-.25.58-.64.61l-.51.42c-.23.46-.38.74-.44.86l-.56,1.03c-.1.28-.18.44-.25.49l-.34,1.28c-.03.13-.21.32-.53.58-.32.25-.48.75-.48,1.48,0,.26.11.42.32.48.21.06.37.15.47.28.38,1.16.6,1.74.66,1.74l.29-.05c.2.74.53,1.1,1.01,1.1.11.05.27.13.47.25.2.11.38.17.54.17.29,0,.61-.05.93-.15l.44-.15s.1.07.2.2c.1.13.2.2.29.2l.69-.1s.16-.04.32-.12l2.06-.74c.34-.23.57-.36.69-.39.12-.03.19-.07.22-.1.16-.15.44-.25.82-.29.38-.05.62-.23.7-.55s.23-.48.44-.48h.44l.15-.05c.15-.2.47-.41.96-.64.13-.15.22-.32.26-.52s.14-.29.31-.29c.06,0,.1.02.1.05l.2.2c.07,0,.16-.07.27-.2s.25-.28.42-.44l.83-.96c.1-.15.23-.25.41-.31.09-.03.19-.1.31-.19.07.02.14.03.2.03.16,0,.32-.08.49-.24v-.1c.05-.33.27-.58.66-.75s.59-.34.59-.5c0-.08.16-.27.47-.56l.44-.3c.16-.34.28-.55.37-.61l.49-.25c.36-.31.86-.64,1.49-1l.05.49-.24.91c0,.24-.02.4-.05.46l-.2.64c0,.24-.02.4-.07.46-.05.07-.09.17-.12.3l-.57,1.25c-.1.15-.15.27-.15.37v.1l.1.58c0,.07-.06.21-.19.43-.14.22-.2.42-.2.58-.15.85-.3,1.4-.47,1.64-.16.25-.24.39-.24.42l-.05.46c-.16.33-.29.74-.38,1.23-.09.49-.21.89-.36,1.2-.14.31-.36.94-.66,1.89l-.46.39c-.2.2-.38.35-.56.47-.17.11-.3.28-.4.49-.46.15-1.16.69-2.11,1.64-.22.22-.43.45-.63.67v1.99l.49-.67c.31-.17.65-.41,1.04-.74.38-.32.57-.5.57-.54.23-.34.55-.66.96-.95.02.23-.14.72-.47,1.47l-2.15,5.37c-.04.21-.12.51-.25.91l.2.34c-.13.07-.26.18-.39.35-.12.16-.24.36-.36.61-.24.5-.48.95-.74,1.33-.25.39-.38.69-.38.92l.22.52c-.11.06-.23.09-.36.09h-.1c-.18.15-.31.35-.39.59-.17.08-.33.15-.51.2-.17.05-.34.17-.52.37-.18.19-.31.29-.4.29v.18s-2.19,0-2.19,0l.08.92c0,.18.06.36.19.54.12.18.2.34.23.47.03.13.11.26.24.38.14.12.28.32.42.59.15.27.38.4.69.4.13.1.23.15.29.15.43,0,1.11-.48,2.05-1.43.94-.96,1.62-1.94,2.02-2.93.41-.3.66-.63.75-1.01s.28-.66.58-.86c.1-.41.19-.64.27-.7.08-.05.22-.44.41-1.16.1-.07.2-.15.3-.25.01-.13.09-.35.22-.67.13-.32.2-.57.2-.75l.9-1.59c.13-.13.22-.3.25-.51.03-.2.14-.52.34-.96.28-.07.42-.22.42-.45l-.05-.85c0-.07.03-.13.1-.2l.09-.1c.17-.34.33-.58.48-.71.16-.13.24-.23.24-.29v-.25l.05-.27c.03-.06.04-.11.04-.15v-.09c-.06-.23-.09-.36-.09-.4,0-.06.06-.14.19-.22s.23-.19.3-.34l.09-.34c.17-.2.27-.43.31-.7.04-.27.11-.46.21-.55.63-.23,1.07-.45,1.3-.67l.44.15h.19l1.18-.34h.29c.16,0,.52-.07,1.05-.2.43.16.78.28,1.05.34.26.07.47.15.61.25.14.1.28.15.43.15.14,0,.33.05.56.17l.37-.05c.22,0,.44.23.64.7.21.46.42.7.65.7l.35-.05h.14c.92-.07,1.37-.52,1.37-1.35,0-.7-.26-1.31-.78-1.81-.52-.51-1.23-.76-2.13-.76Zm-23.19-10.11c.32-.65.63-1.06.93-1.21.3-.15.61-.36.93-.61.32-.25.51-.4.58-.43l.29-.15.42-.1c.29-.2.47-.29.54-.29h.56c.26-.16.46-.25.59-.25.31,0,.47.1.47.29,0,.1-.14.2-.43.29-.29.1-.57.37-.85.81l-.25.1c-.13.16-.33.33-.6.5-.27.17-.42.29-.45.36l-.2.2c-.51.33-.9.6-1.17.83-.27.23-.56.42-.87.56l-.83.37c-.1,0-.15-.05-.15-.15s.16-.47.48-1.13Z"/>
    <path class="cls-1" d="m252.98,23.91v-.15c.16-.16.25-.33.25-.52,0-.33-.17-.49-.52-.49s-.62.22-.87.65c-.25.43-.4.65-.43.65-.15.03-.42.2-.81.51-.6.6-1.05,1-1.32,1.18s-.53.37-.75.58c-.22.2-.46.36-.71.45-.25.1-.51.26-.77.48s-.54.38-.82.48c-.29.1-.53.21-.74.34s-.44.23-.71.29c-.27.07-.47.15-.6.26s-.21.16-.25.16l-.34-.1c-.21.1-.33.15-.37.15-.64,0-.96-.12-.96-.37,0-.1.06-.23.18-.39.12-.16.22-.35.28-.55s.13-.34.2-.4l.2-.29c.13-.28.23-.47.31-.56s.11-.16.11-.2v-.44c0-.13.16-.25.49-.37.21-.29.38-.59.51-.88l.25-.17c.87-1.11,1.41-1.72,1.64-1.84.28-.44.42-.88.42-1.32,0-.16-.12-.6-.36-1.3-.24-.7-.42-1.17-.55-1.4l-.15-.37c-.07-1.19-.59-1.79-1.57-1.79-.83,0-1.55.3-2.16.91-.13.16-.25.28-.37.34-.12.07-.19.13-.22.2-.34.43-.92.87-1.72,1.35l-.15.32-.37.1-.29.34c-.39.13-.76.38-1.09.75-.34.37-.63.61-.88.71-.25.11-.41.24-.48.4s-.23.26-.49.29c-.25.03-.65.27-1.18.71,0,0,0,0,0,0-.13-.16-.24-.25-.34-.25-.28,0-.55.2-.81.6s-.54.67-.84.8-.48.31-.53.53c-.05.22-.2.33-.44.33l-.39.34c-.2.16-.37.37-.51.61l-.24.1c-.1.03-.27.2-.5.5-.24.3-.62.52-1.14.65-.11-.1-.17-.3-.17-.61l.1-.69-.05-.61c0-.13.07-.28.21-.45.14-.17.21-.31.21-.4v-.05l.34-1.01c.03-.16.08-.31.15-.44.95-.95,1.42-1.95,1.42-3.02,0-.9-.35-1.35-1.05-1.35-.98,0-1.62.3-1.93.9-.3.6-.54.9-.7.9-.13,0-.21-.15-.25-.44-.1-1.41-.66-2.11-1.67-2.11-.1,0-.18.02-.25.05l-.39.2h-.05c-.25-.13-.4-.2-.47-.2h-.15c-.8.41-1.24.61-1.3.61h-.2c-.21,0-.5.11-.87.32-.37.21-.75.39-1.13.53s-.73.36-1.03.65c-.3.29-.5.46-.6.49-.67.34-1.29.8-1.87,1.37l-.74.74c-.41.28-.69.53-.83.76-.15.23-.34.45-.59.67s-.36.43-.34.62l-.25.32c-.1.07-.29.32-.58.77-.29.45-.43.71-.43.77l.05.66c-.31,0-.47.1-.47.29l.05.81v.15c-.03.07-.05.2-.05.39,0,.41.07.73.22.96l.25,1.01c.05.34.37.64.96.88.59.25,1.1.37,1.55.37.54,0,1.46-.43,2.77-1.3l.15-.15c.38-.2.66-.36.86-.49l1.86-1.52c.23-.16.42-.37.56-.62.15-.25.24-.4.27-.43l.47.05.25-.25c.08-.11.23-.21.44-.28.21-.07.33-.17.37-.28l.1-.15c.2-.13.36-.28.49-.44.08-.31.19-.52.32-.61.23,0,.43-.08.6-.25.17-.16.29-.25.36-.25s.1.05.1.15l-.15,1.2c0,.07.02.15.05.25.03.1.05.19.05.27,0,.07-.02.11-.05.15-.03.03-.05.08-.05.15s.04.15.12.25c.08.1.12.18.12.25l-.1.47c0,.33.07.58.22.77.15.19.23.34.25.45.02.11.07.22.17.32.28.03.55.11.81.23.26.12.55.18.86.18.07,0,.18-.04.36-.14.17-.09.43-.18.78-.28s.61-.23.77-.39l.05-.25c.23-.06.43-.14.59-.22.26-.29.5-.46.72-.49s.39-.18.51-.44c.12-.26.36-.45.72-.56l.25-.34c.31-.21.5-.39.58-.54.07-.15.23-.29.48-.42l.17-.32.03-.22c.32-.03.57-.11.7-.29.16-.21.3-.37.43-.47l.49-.12c.28-.13.45-.2.52-.2.2-.26.39-.49.59-.69.25,0,.43-.09.56-.27.13-.18.21-.28.25-.29.51-.13.81-.21.91-.25.1-.03.21-.2.34-.52l.42-.2c.2-.26.43-.45.7-.58.27-.12.45-.22.53-.31.08-.08.3-.2.65-.37.35-.16.58-.33.67-.5.1-.17.19-.26.27-.26.42,0,.64.24.64.71,0,.07-.07.21-.2.44-.1.03-.18.16-.25.38-.07.22-.12.35-.15.38l-.32.44c-.1.31-.24.57-.42.78-.18.21-.51.79-.98,1.74-.1.43-.22.73-.38.92s-.25.36-.28.53c-.03.16-.11.41-.25.75-.13.34-.2.9-.2,1.68,0,.13.09.36.27.7.18.34.33.67.44.99.11.33.46.65,1.04.98.58.33.88.49.9.49l.71-.05.39-.12s.17.06.37.17l.59-.32.71-.15c.87-.6,1.39-.91,1.57-.91.26,0,.39-.11.39-.34v-.05l-.15-.25c0-.15.1-.22.29-.22h.1l.15.05s.16-.06.37-.2l.1-.25c.03-.23.1-.34.2-.34.03,0,.1.03.2.1.1.07.16.1.2.1.07,0,.19-.1.38-.31.19-.2.54-.49,1.04-.87.51-.38.9-.7,1.18-.98.28-.28.49-.44.65-.49s.28-.25.38-.61c.26-.06.42-.2.47-.4.05-.2.13-.37.26-.5.12-.13.18-.23.18-.29,0-.1-.02-.17-.05-.22l-.05-.39Zm-27.1-1.57c-.58.59-1.03,1-1.34,1.23-.07.2-.27.39-.6.58-.33.19-.54.46-.6.82-.25.11-.41.23-.49.34s-.3.25-.66.42l-.51.39c-.62.34-1.07.6-1.35.76-.12.18-.28.32-.49.43-.21.11-.36.2-.44.29-.08.09-.16.14-.25.16s-.16.06-.22.12l-.47.25c-.2.07-.33.13-.39.2s-.31.18-.72.36-.69.26-.82.26c-.31,0-.47-.4-.47-1.2,0-.13.09-.31.28-.53.19-.22.3-.47.33-.74.03-.27.15-.44.34-.51.2-.07.36-.17.49-.28l.17-.42s.21-.25.64-.59c.11-.44.37-.73.76-.86.65-.46,1.04-.81,1.15-1.05.2,0,.51-.16.93-.48.43-.32.9-.54,1.44-.67.53-.13.89-.25,1.08-.36.19-.11.41-.16.67-.16l.49.1.32-.05.34.17.47-.05.44.05.2-.12h.05c.07,0,.1.02.1.07,0,.13-.29.49-.87,1.08Z"/>
  </g>
  <path class="cls-2" d="m201.74,80.53v11.28c0,5.6-.27,9.71-.81,12.33-.53,2.62-1.68,5.04-3.44,7.27s-4.21,3.94-7.35,5.13c-3.14,1.19-6.97,1.78-11.5,1.78-5.07,0-9.55-.89-13.42-2.66-3.88-1.77-6.63-4.42-8.26-7.93-1.62-3.52-2.44-8.96-2.44-16.31v-4.3h19.73v4.93c0,5.11.18,8.74.54,10.89.35,2.15,1.59,3.22,3.71,3.22.97,0,1.76-.31,2.37-.92.6-.62.92-1.29.97-2.01.05-.71.11-3.82.17-9.32v-15.68c0-2.96-.31-4.98-.92-6.05-.62-1.08-1.65-1.61-3.08-1.61-.91,0-1.68.27-2.3.83-.61.55-1.01,1.14-1.19,1.78-.18.63-.27,2.11-.27,4.42h-19.53l.83-39.85h42.33v7.55c-.12.16-.24.36-.36.61-.24.5-.48.95-.74,1.33-.25.39-.38.69-.38.92l.22.52c-.11.06-.23.09-.36.09h-.1c-.18.15-.31.35-.39.59-.17.08-.33.15-.51.2-.17.05-.34.17-.52.37-.18.19-.31.29-.4.29v.18s-20.92,0-20.92,0v13.43c3.06-3.61,7-5.42,11.82-5.42,5.43,0,9.54,1.52,12.32,4.56,2.79,3.05,4.18,8.9,4.18,17.56Z"/>
  <path class="cls-2" d="m252.51,64.51v26.37c0,5.99-.33,10.35-.98,13.09s-2,5.29-4.05,7.67-4.52,4.08-7.42,5.13c-2.9,1.04-6.14,1.56-9.72,1.56-4.72,0-8.64-.55-11.77-1.64-3.12-1.09-5.62-2.79-7.47-5.1s-3.17-4.74-3.96-7.3-1.17-6.62-1.17-12.18v-27.59c0-7.26.63-12.7,1.88-16.31s3.74-6.51,7.47-8.69c3.73-2.18,8.24-3.27,13.55-3.27,4.33,0,8.2.76,11.62,2.27s5.97,3.36,7.67,5.54c1.69,2.18,2.84,4.64,3.44,7.37s.9,7.1.9,13.09Zm-19.73-6.64c0-4.2-.2-6.83-.61-7.89-.41-1.06-1.36-1.59-2.86-1.59s-2.43.56-2.91,1.68-.71,3.72-.71,7.79v38.57c0,4.59.22,7.36.66,8.3s1.39,1.42,2.86,1.42,2.42-.55,2.88-1.66.68-3.6.68-7.47v-39.16Z"/>
</svg>